<svg xmlns="http://www.w3.org/2000/svg" enable-background="new 0 0 512 512" viewBox="0 0 512 512" id="Audiobook"><linearGradient id="a" x1="76.507" x2="435.493" y1="465.154" y2="106.167" gradientUnits="userSpaceOnUse"><stop offset="0" stop-color="#945ee5" class="stopColor5ebce5 svgShape"></stop><stop offset=".522" stop-color="#b687fd" class="stopColorb678e6 svgShape"></stop><stop offset=".99" stop-color="#9160da" class="stopColorda6079 svgShape"></stop></linearGradient><path fill="url(#a)" d="M472,265.258V232c0-119.103-96.897-216-216-216S40,112.897,40,232v33.258
	C26.166,269.186,16,281.924,16,297v94c0,18.196,14.804,33,33,33h30c9.689,0,18.415-4.198,24.458-10.87l11.789-1.474
	C136.199,409.037,152,391.139,152,370.022v-46.284c7.658,6.864,17.527,11.3,28.392,12.112C172.695,344.367,168,355.645,168,368
	s4.695,23.633,12.392,32.15C155.605,402.003,136,422.748,136,448c0,26.467,21.533,48,48,48h152c4.418,0,8-3.582,8-8v-72h24
	c4.418,0,8-3.582,8-8v-5.037c5.832,4.608,12.933,7.716,20.754,8.693l11.789,1.474C414.585,419.802,423.311,424,433,424h30
	c18.196,0,33-14.804,33-33v-94C496,281.924,485.834,269.186,472,265.258z M56,232c0-110.28,89.72-200,200-200s200,89.72,200,200v32
	h-16v-32c0-101.458-82.542-184-184-184S72,130.542,72,232v32H56V232z M96,391c0,9.374-7.626,17-17,17H49c-9.374,0-17-7.626-17-17
	v-94c0-9.374,7.626-17,17-17h30c9.374,0,17,7.626,17,17V391z M136,370.022c0,13.063-9.775,24.137-22.738,25.757l-1.638,0.205
	c0.247-1.626,0.376-3.29,0.376-4.984v-94c0-1.694-0.129-3.358-0.376-4.984l1.638,0.205c12.963,1.62,22.738,12.693,22.738,25.757
	V370.022z M152,288c0-17.645,14.355-32,32-32h144v8H192c-13.233,0-24,10.767-24,24s10.767,24,24,24h136v8H184
	C166.355,320,152,305.645,152,288z M328,280v16H192c-4.411,0-8-3.589-8-8s3.589-8,8-8H328z M328,456H192c-4.411,0-8-3.589-8-8
	s3.589-8,8-8h136V456z M328,424H192c-13.233,0-24,10.767-24,24s10.767,24,24,24h136v8H184c-17.645,0-32-14.355-32-32
	s14.355-32,32-32h144V424z M360,370.022V376H224c-4.411,0-8-3.589-8-8s3.589-8,8-8h136V370.022z M360,344H224
	c-13.233,0-24,10.767-24,24s10.767,24,24,24h136v8h-24H216c-17.645,0-32-14.355-32-32s14.355-32,32-32h144V344z M400.376,395.984
	l-1.638-0.205C385.775,394.159,376,383.086,376,370.022v-52.045c0-13.063,9.775-24.137,22.738-25.757l1.638-0.205
	c-0.247,1.626-0.376,3.29-0.376,4.984v94C400,392.694,400.129,394.358,400.376,395.984z M408.542,274.87l-11.789,1.474
	C375.801,278.963,360,296.861,360,317.978V320h-16v-72c0-4.418-3.582-8-8-8H184c-25.496,0-46.405,19.984-47.905,45.11
	c-5.849-4.649-12.986-7.783-20.849-8.766l-11.789-1.474c-4.096-4.523-9.43-7.901-15.458-9.612V232c0-92.636,75.364-168,168-168
	s168,75.364,168,168v33.258C417.972,266.969,412.639,270.347,408.542,274.87z M480,391c0,9.374-7.626,17-17,17h-30
	c-9.374,0-17-7.626-17-17v-94c0-9.374,7.626-17,17-17h30c9.374,0,17,7.626,17,17V391z M264,142.059v48c0,4.418-3.582,8-8,8
	s-8-3.582-8-8v-48c0-4.418,3.582-8,8-8S264,137.641,264,142.059z M197.657,202.343c3.124,3.125,3.124,8.189,0,11.314
	C196.095,215.219,194.048,216,192,216s-4.095-0.781-5.657-2.343l-33.941-33.941c-3.124-3.125-3.124-8.189,0-11.314
	c3.125-3.123,8.189-3.123,11.314,0L197.657,202.343z M359.599,168.401c3.124,3.125,3.124,8.189,0,11.314l-33.941,33.941
	C324.095,215.219,322.048,216,320,216s-4.095-0.781-5.657-2.343c-3.124-3.125-3.124-8.189,0-11.314l33.941-33.941
	C351.409,165.278,356.474,165.278,359.599,168.401z"></path></svg>