<svg xmlns="http://www.w3.org/2000/svg" viewBox="0 0 48 48" id="BookOfFaq"><g data-name="Book of FAQ" fill="#000000" class="color000000 svgShape"><path fill="#9e6fe6" d="M42,3l0,34L12,37,12,1,40,1A2,2,0,0,1,42,3Z" class="color6fabe6 svgShape"></path><path fill="#b687fd" d="M42,3c0,35.18-.07,34,0,34A30,30,0,0,1,12,7V1L40,1A2,2,0,0,1,42,3Z" class="color82bcf4 svgShape"></path><path fill="#ddd7e5" d="M42,37v8H10a4,4,0,0,1,0-8Z" class="colordad7e5 svgShape"></path><path fill="#eeebf2" d="M42,39v6H10a4,4,0,0,1-3.87-3A4,4,0,0,1,10,39Z" class="coloredebf2 svgShape"></path><path fill="#4b3768" d="M12,1V37H10a4,4,0,0,0-4,4V5a4,4,0,0,1,4-4Z" class="color374f68 svgShape"></path><path fill="#8b56db" d="M20,41v5a1,1,0,0,1-1,1H17a1,1,0,0,1-1-1V41Z" class="colordb5669 svgShape"></path><path fill="#9e66f2" d="M20,41v5a1,1,0,0,1-2,0V41Z" class="colorf26674 svgShape"></path><path fill="#554272" d="M12,1V37H10a1.92,1.92,0,0,1-2-1.87V1.54C9.19.86,10.07,1,12,1Z" class="color425b72 svgShape"></path><path d="M40,0H10A5,5,0,0,0,5,5c0,37.57,0,35,.07,35.33A5,5,0,0,0,10,46h5v1a1,1,0,0,0,1,1h4a1,1,0,0,0,1-1V46H42a1,1,0,0,0,1-1V3A3,3,0,0,0,40,0Zm1,3V36H13V2H40A1,1,0,0,1,41,3ZM10,2h1V36a5.57,5.57,0,0,0-4,1V5A3,3,0,0,1,10,2Zm0,42a3,3,0,0,1-2.13-5.12C9.08,37.69,7.16,38,41,38v2H12a1,1,0,0,0,0,2h3v2Zm9,2H17V42h2Zm2-2V42H41v2Z" fill="#000000" class="color000000 svgShape"></path><path d="M35.89 17.31l.4.4a1 1 0 0 0 1.42-1.42L37 15.53A16 16 0 0 0 37 13a3 3 0 0 0-6 0v2A3 3 0 0 0 35.89 17.31zM33 13a1 1 0 0 1 2 0v1c-.77 0-1.48.93-.54 1.87A1 1 0 0 1 33 15zM18 17V15h2a1 1 0 0 0 0-2H18V12h3a1 1 0 0 0 0-2H17a1 1 0 0 0-1 1v6A1 1 0 0 0 18 17zM25 17.32l.1-.32c2.2 0 1.86-.1 2 .32a1 1 0 0 0 1.9-.64l-2-6a1 1 0 0 0-1.9 0l-2 6A1 1 0 0 0 25 17.32zM26.28 15h-.56l.28-.84zM17 22H35a1 1 0 0 0 0-2H17A1 1 0 0 0 17 22zM31 26H21a1 1 0 0 0 0 2H31A1 1 0 0 0 31 26z" fill="#000000" class="color000000 svgShape"></path></g></svg>