<svg xmlns="http://www.w3.org/2000/svg" data-name="Layer 1" viewBox="0 0 48 48" id="chatbox"><path fill="#b687fd" d="M41,4H7A4.00427,4.00427,0,0,0,3,8V33a4.00427,4.00427,0,0,0,4,4h8.57617a2.01444,2.01444,0,0,1,1.583.77734l4.4126,5.71485a2.97335,2.97335,0,0,0,2.37256,1.166h.05078A2.97218,2.97218,0,0,0,26.37793,43.415l4.03418-5.58594A2.00516,2.00516,0,0,1,32.03418,37H41a4.004,4.004,0,0,0,4-4V8A4.004,4.004,0,0,0,41,4Z" class="colorb0d5ea svgShape"></path><circle cx="24" cy="21" r="2.5" fill="#f6f0ff" class="colorf0f7ff svgShape"></circle><circle cx="16" cy="21" r="2.5" fill="#f6f0ff" class="colorf0f7ff svgShape"></circle><circle cx="32" cy="21" r="2.5" fill="#f6f0ff" class="colorf0f7ff svgShape"></circle><path fill="#6e4d9f" d="M23.94434,44.6582a2.97335,2.97335,0,0,1-2.37256-1.166l-4.4126-5.71436A2.012,2.012,0,0,0,15.57617,37H7a4.00458,4.00458,0,0,1-4-4V8A4.00458,4.00458,0,0,1,7,4H41a4.00427,4.00427,0,0,1,4,4V33a4.00427,4.00427,0,0,1-4,4H32.03418a2.0065,2.0065,0,0,0-1.62207.8291l-4.03418,5.58545a2.97084,2.97084,0,0,1-2.38281,1.24316ZM7,6A2.002,2.002,0,0,0,5,8V33a2.002,2.002,0,0,0,2,2h8.57617a4.024,4.024,0,0,1,3.166,1.55566l4.4126,5.71387a.977.977,0,0,0,.80761.38867.99117.99117,0,0,0,.794-.41406L28.791,36.6582A4.01123,4.01123,0,0,1,32.03418,35H41a2.00229,2.00229,0,0,0,2-2V8a2.00229,2.00229,0,0,0-2-2Z" class="color4d7a9f svgShape"></path></svg>