<svg xmlns="http://www.w3.org/2000/svg" viewBox="0 0 24 24" id="Connect"><g transform="translate(44 -37.02) scale(3.77953)" fill="#000000" class="color000000 svgShape"><path fill="#b687fd" d="m -6.3500004,14.028111 c -1.4111112,0 -2.8222224,0 -4.2333336,0 -0.29225,0 -0.529166,-0.236916 -0.529166,-0.529166 v -2.116667 c 0,-0.29225 0.236916,-0.529166 0.529166,-0.529166 h 4.2333336 c 0.2922504,0 0.5291663,0.236916 0.5291667,0.529166 v 2.116667 c -4e-7,0.29225 -0.2369163,0.529166 -0.5291667,0.529166 z" class="colorceeefb svgShape"></path><path fill="#6c1ee1" d="m -7.1755004,14.946216 a 0.26458333,0.26458333 0 0 1 -0.2328333,0.140229 h -2.1166667 a 0.26458333,0.26458333 0 0 1 -0.2328333,-0.140229 0.26458333,0.26458333 0 0 1 0,-0.264584 l 1.0583333,-1.5875 a 0.26458333,0.26458333 0 0 1 0.4392084,0 l 1.0583333,1.5875 a 0.26458333,0.26458333 0 0 1 0.026458,0.264584 z" class="color1eaae1 svgShape"></path></g></svg>